<?xml version="1.0" encoding="iso-8859-1"?>
<!-- Uploaded to: SVG Repo, www.svgrepo.com, Generator: SVG Repo Mixer Tools -->
<svg fill="#000000" version="1.1" id="Layer_1" xmlns="http://www.w3.org/2000/svg" xmlns:xlink="http://www.w3.org/1999/xlink" 
	 viewBox="0 0 480 480" xml:space="preserve">
<g>
	<g>
		<path d="M472,88H200V40c0-22.056-17.944-40-40-40H0v16h160c13.232,0,24,10.768,24,24v86.984c-13.784-3.552-24-16.104-24-30.984V56
			h-16v17.472c-2.512-0.896-5.184-1.472-8-1.472c-6.168,0-11.744,2.408-16,6.24c-4.256-3.84-9.832-6.24-16-6.24
			c-6.168,0-11.744,2.408-16,6.24C83.744,74.4,78.168,72,72,72c-6.168,0-11.744,2.408-16,6.24C51.744,74.408,46.168,72,40,72
			c-10.416,0-19.216,6.712-22.528,16H0v16h16v16H0v16h16v8c0,13.232,10.768,24,24,24c6.168,0,11.744-2.408,16-6.24
			c4.256,3.84,9.832,6.24,16,6.24c6.168,0,11.744-2.408,16-6.24c4.256,3.84,9.832,6.24,16,6.24c6.168,0,11.744-2.408,16-6.24
			c4.256,3.84,9.832,6.24,16,6.24c13.232,0,24-10.768,24-24v-12.32c8.504,7.632,19.696,12.32,32,12.32c4.416,0,8-3.576,8-8h16v336
			c0,4.424,3.584,8,8,8h248c4.416,0,8-3.576,8-8V128V96C480,91.576,476.416,88,472,88z M48,144c0,4.416-3.592,8-8,8s-8-3.584-8-8V96
			c0-4.416,3.592-8,8-8s8,3.584,8,8V144z M80,144c0,4.416-3.592,8-8,8s-8-3.584-8-8V96c0-4.416,3.592-8,8-8s8,3.584,8,8V144z
			 M112,144c0,4.416-3.592,8-8,8s-8-3.584-8-8V96c0-4.416,3.592-8,8-8s8,3.584,8,8V144z M144,144c0,4.416-3.592,8-8,8s-8-3.584-8-8
			V96c0-4.416,3.592-8,8-8s8,3.584,8,8V144z M232,464v-44.688l20-20L288.688,436l-28,28H232z M300,159.312L336.688,196L300,232.688
			L263.312,196L300,159.312z M299.312,136h1.376L300,136.688L299.312,136z M396,159.312L432.688,196L396,232.688L359.312,196
			L396,159.312z M395.312,136h1.376L396,136.688L395.312,136z M336.688,292L300,328.688L263.312,292L300,255.312L336.688,292z
			 M311.312,244L348,207.312L384.688,244L348,280.688L311.312,244z M336.688,388L300,424.688L263.312,388L300,351.312L336.688,388z
			 M311.312,340L348,303.312L384.688,340L348,376.688L311.312,340z M396,351.312L432.688,388L396,424.688L359.312,388L396,351.312z
			 M359.312,292L396,255.312L432.688,292L396,328.688L359.312,292z M348,184.688L311.312,148l12-12h49.376l12,12L348,184.688z
			 M252,184.688l-20-20V136h44.688l12,12L252,184.688z M240.688,196L232,204.688v-17.376L240.688,196z M252,207.312L288.688,244
			L252,280.688l-20-20v-33.376L252,207.312z M240.688,292L232,300.688v-17.376L240.688,292z M252,303.312L288.688,340L252,376.688
			l-20-20v-33.376L252,303.312z M240.688,388L232,396.688v-17.376L240.688,388z M283.312,464L300,447.312L316.688,464H283.312z
			 M339.312,464l-28-28L348,399.312L384.688,436l-28,28H339.312z M379.312,464L396,447.312L412.688,464H379.312z M464,464h-28.688
			l-28-28L444,399.312l20,20V464z M464,396.688L455.312,388l8.688-8.688V396.688z M464,356.688l-20,20L407.312,340L444,303.312
			l20,20V356.688z M464,300.688L455.312,292l8.688-8.688V300.688z M464,260.688l-20,20L407.312,244L444,207.312l20,20V260.688z
			 M464,204.688L455.312,196l8.688-8.688V204.688z M464,164.688l-20,20L407.312,148l12-12H464V164.688z M464,120H224h-24v-16h264
			V120z"/>
	</g>
</g>
<g>
	<g>
		<rect x="184" y="312" width="16" height="72"/>
	</g>
</g>
<g>
	<g>
		<rect x="184" y="400" width="16" height="16"/>
	</g>
</g>
<g>
	<g>
		<rect x="184" y="432" width="16" height="16"/>
	</g>
</g>
<g>
	<g>
		<rect x="184" y="464" width="16" height="16"/>
	</g>
</g>
</svg>